<?xml version="1.0" encoding="utf-8"?>
<svg viewBox="0 0 456 456" width="456" height="456" style="fill-rule:evenodd;clip-rule:evenodd;stroke-linejoin:round;stroke-miterlimit:2;" xmlns="http://www.w3.org/2000/svg" xmlns:xlink="http://www.w3.org/1999/xlink">
  <path d="M -44.929 75.132 L -44.929 -11.482 L 14.448 -11.482 L 14.448 3.17 L -27.441 3.17 L -27.441 23.672 L 8.717 23.672 L 8.717 38.324 L -27.441 38.324 L -27.441 75.132 Z M 24.428 46.95 L 41.444 45.296 Q 42.98 53.862 47.677 57.88 Q 52.374 61.898 60.35 61.898 Q 68.799 61.898 73.082 58.323 Q 77.366 54.749 77.366 49.963 Q 77.366 46.891 75.564 44.734 Q 73.762 42.578 69.272 40.983 Q 66.199 39.919 55.269 37.201 Q 41.208 33.715 35.536 28.634 Q 27.56 21.486 27.56 11.205 Q 27.56 4.588 31.311 -1.172 Q 35.063 -6.933 42.123 -9.946 Q 49.184 -12.959 59.169 -12.959 Q 75.475 -12.959 83.717 -5.81 Q 91.959 1.339 92.373 13.273 L 74.884 14.041 Q 73.762 7.365 70.069 4.44 Q 66.377 1.516 58.991 1.516 Q 51.37 1.516 47.057 4.647 Q 44.28 6.656 44.28 10.024 Q 44.28 13.096 46.88 15.282 Q 50.188 18.059 62.95 21.072 Q 75.712 24.085 81.827 27.305 Q 87.942 30.525 91.398 36.108 Q 94.854 41.692 94.854 49.904 Q 94.854 57.348 90.718 63.847 Q 86.583 70.346 79.02 73.507 Q 71.458 76.668 60.173 76.668 Q 43.748 76.668 34.945 69.076 Q 26.142 61.484 24.428 46.95 Z M 105.313 52.149 L 121.383 50.199 Q 122.151 56.344 125.519 59.593 Q 128.886 62.843 133.672 62.843 Q 138.812 62.843 142.327 58.944 Q 145.843 55.044 145.843 48.427 Q 145.843 42.164 142.475 38.501 Q 139.107 34.838 134.263 34.838 Q 131.072 34.838 126.641 36.079 L 128.473 22.549 Q 135.208 22.726 138.753 19.624 Q 142.298 16.523 142.298 11.382 Q 142.298 7.01 139.698 4.411 Q 137.099 1.811 132.786 1.811 Q 128.532 1.811 125.519 4.765 Q 122.505 7.719 121.856 13.391 L 106.553 10.792 Q 108.148 2.934 111.368 -1.763 Q 114.588 -6.46 120.349 -9.149 Q 126.109 -11.837 133.258 -11.837 Q 145.488 -11.837 152.874 -4.038 Q 158.959 2.343 158.959 10.378 Q 158.959 21.781 146.493 28.575 Q 153.937 30.171 158.398 35.724 Q 162.858 41.278 162.858 49.136 Q 162.858 60.539 154.528 68.574 Q 146.197 76.609 133.79 76.609 Q 122.033 76.609 114.293 69.844 Q 106.553 63.079 105.313 52.149 Z M 176.8 -11.482 L 208.764 -11.482 Q 219.576 -11.482 225.248 -9.828 Q 232.869 -7.583 238.305 -1.852 Q 243.74 3.879 246.576 12.18 Q 249.412 20.481 249.412 32.652 Q 249.412 43.346 246.754 51.086 Q 243.504 60.539 237.478 66.388 Q 232.928 70.819 225.189 73.3 Q 219.399 75.132 209.709 75.132 L 176.8 75.132 Z M 194.289 3.17 L 194.289 60.539 L 207.346 60.539 Q 214.672 60.539 217.922 59.712 Q 222.175 58.648 224.982 56.108 Q 227.788 53.567 229.561 47.747 Q 231.333 41.928 231.333 31.884 Q 231.333 21.84 229.561 16.464 Q 227.788 11.087 224.598 8.074 Q 221.407 5.061 216.504 3.997 Q 212.841 3.17 202.147 3.17 Z" transform="matrix(1.0640690326690674, 0, 0, 1.0640690326690674, 120.74612426757814, 128.31114196777344)" style="fill: rgb(255, 255, 255);"/>
  <path transform="matrix(1.0640690326690674, 0, 0, 1.0640690326690674, 120.74612426757814, 128.31114196777344)" style="fill: rgb(51, 51, 51);"/>
  <path d="M -82.21 196.132 L -82.21 109.518 L -56.037 109.518 L -40.321 168.6 L -24.783 109.518 L 1.45 109.518 L 1.45 196.132 L -14.798 196.132 L -14.798 127.951 L -31.991 196.132 L -48.829 196.132 L -65.963 127.951 L -65.963 196.132 Z M 14.857 163.873 Q 14.857 155.602 18.934 147.862 Q 23.01 140.122 30.484 136.046 Q 37.958 131.969 47.175 131.969 Q 61.414 131.969 70.512 141.215 Q 79.611 150.462 79.611 164.582 Q 79.611 178.821 70.424 188.185 Q 61.236 197.55 47.293 197.55 Q 38.667 197.55 30.839 193.651 Q 23.01 189.751 18.934 182.218 Q 14.857 174.685 14.857 163.873 Z M 31.873 164.759 Q 31.873 174.094 36.304 179.057 Q 40.735 184.02 47.234 184.02 Q 53.733 184.02 58.135 179.057 Q 62.536 174.094 62.536 164.641 Q 62.536 155.424 58.135 150.462 Q 53.733 145.499 47.234 145.499 Q 40.735 145.499 36.304 150.462 Q 31.873 155.424 31.873 164.759 Z M 91.901 196.132 L 91.901 109.518 L 108.503 109.518 L 108.503 140.713 Q 116.184 131.969 126.7 131.969 Q 138.162 131.969 145.666 140.27 Q 153.169 148.571 153.169 164.11 Q 153.169 180.18 145.518 188.865 Q 137.867 197.55 126.937 197.55 Q 121.56 197.55 116.331 194.862 Q 111.103 192.174 107.321 186.915 L 107.321 196.132 Z M 108.385 163.401 Q 108.385 173.149 111.457 177.817 Q 115.77 184.434 122.919 184.434 Q 128.414 184.434 132.284 179.737 Q 136.153 175.04 136.153 164.937 Q 136.153 154.184 132.254 149.428 Q 128.355 144.672 122.269 144.672 Q 116.302 144.672 112.343 149.309 Q 108.385 153.947 108.385 163.401 Z M 166.523 124.879 L 166.523 109.518 L 183.125 109.518 L 183.125 124.879 Z M 166.523 196.132 L 166.523 133.387 L 183.125 133.387 L 183.125 196.132 Z M 200.139 196.132 L 200.139 109.518 L 216.741 109.518 L 216.741 196.132 Z M 270.091 176.162 L 286.634 178.939 Q 283.444 188.038 276.561 192.794 Q 269.678 197.55 259.338 197.55 Q 242.972 197.55 235.115 186.856 Q 228.911 178.289 228.911 165.232 Q 228.911 149.634 237.064 140.802 Q 245.218 131.969 257.684 131.969 Q 271.686 131.969 279.781 141.215 Q 287.875 150.462 287.52 169.545 L 245.927 169.545 Q 246.104 176.93 249.944 181.037 Q 253.784 185.143 259.515 185.143 Q 263.415 185.143 266.074 183.016 Q 268.732 180.889 270.091 176.162 Z M 271.036 159.383 Q 270.859 152.175 267.314 148.423 Q 263.769 144.672 258.688 144.672 Q 253.253 144.672 249.708 148.63 Q 246.163 152.589 246.222 159.383 Z" transform="matrix(1.0640690326690674, 0, 0, 1.0640690326690674, 120.74612426757814, 128.31114196777344)" style="fill: rgb(255, 255, 255);"/>
</svg>