<?xml version="1.0" encoding="utf-8"?>
<svg viewBox="0 0 456 456" width="456px" height="456px" xmlns="http://www.w3.org/2000/svg">
  <path d="M 104.788 94.417 L 104.788 86.185 L 110.431 86.185 L 110.431 87.578 L 106.45 87.578 L 106.45 89.526 L 109.886 89.526 L 109.886 90.919 L 106.45 90.919 L 106.45 94.417 Z M 111.378 91.739 L 112.995 91.581 Q 113.141 92.396 113.588 92.777 Q 114.034 93.159 114.792 93.159 Q 115.595 93.159 116.002 92.819 Q 116.409 92.48 116.409 92.025 Q 116.409 91.733 116.238 91.528 Q 116.067 91.323 115.64 91.171 Q 115.348 91.07 114.309 90.812 Q 112.973 90.481 112.434 89.998 Q 111.676 89.318 111.676 88.341 Q 111.676 87.712 112.032 87.165 Q 112.389 86.617 113.06 86.331 Q 113.731 86.045 114.68 86.045 Q 116.23 86.045 117.013 86.724 Q 117.796 87.404 117.836 88.538 L 116.173 88.611 Q 116.067 87.976 115.716 87.698 Q 115.365 87.42 114.663 87.42 Q 113.939 87.42 113.529 87.718 Q 113.265 87.909 113.265 88.229 Q 113.265 88.521 113.512 88.729 Q 113.826 88.993 115.039 89.279 Q 116.252 89.565 116.833 89.871 Q 117.414 90.177 117.743 90.708 Q 118.071 91.239 118.071 92.019 Q 118.071 92.727 117.678 93.344 Q 117.285 93.962 116.566 94.263 Q 115.848 94.563 114.775 94.563 Q 113.214 94.563 112.378 93.841 Q 111.541 93.12 111.378 91.739 Z M 119.065 92.233 L 120.592 92.047 Q 120.665 92.631 120.986 92.94 Q 121.306 93.249 121.76 93.249 Q 122.249 93.249 122.583 92.878 Q 122.917 92.508 122.917 91.879 Q 122.917 91.284 122.597 90.936 Q 122.277 90.587 121.817 90.587 Q 121.513 90.587 121.092 90.705 L 121.266 89.419 Q 121.906 89.436 122.243 89.141 Q 122.58 88.847 122.58 88.358 Q 122.58 87.943 122.333 87.696 Q 122.086 87.448 121.676 87.448 Q 121.272 87.448 120.986 87.729 Q 120.699 88.01 120.637 88.549 L 119.183 88.302 Q 119.335 87.555 119.641 87.109 Q 119.947 86.662 120.494 86.407 Q 121.042 86.151 121.721 86.151 Q 122.884 86.151 123.585 86.893 Q 124.164 87.499 124.164 88.263 Q 124.164 89.346 122.979 89.992 Q 123.686 90.144 124.11 90.672 Q 124.534 91.199 124.534 91.946 Q 124.534 93.03 123.743 93.794 Q 122.951 94.557 121.772 94.557 Q 120.654 94.557 119.919 93.914 Q 119.183 93.271 119.065 92.233 Z M 125.859 86.185 L 128.896 86.185 Q 129.924 86.185 130.463 86.342 Q 131.187 86.556 131.704 87.1 Q 132.221 87.645 132.49 88.434 Q 132.76 89.223 132.76 90.38 Q 132.76 91.396 132.507 92.132 Q 132.198 93.03 131.625 93.586 Q 131.193 94.007 130.457 94.243 Q 129.907 94.417 128.986 94.417 L 125.859 94.417 Z M 127.521 87.578 L 127.521 93.03 L 128.762 93.03 Q 129.458 93.03 129.767 92.951 Q 130.171 92.85 130.438 92.609 Q 130.705 92.367 130.873 91.814 Q 131.041 91.261 131.041 90.307 Q 131.041 89.352 130.873 88.841 Q 130.705 88.33 130.401 88.044 Q 130.098 87.757 129.632 87.656 Q 129.284 87.578 128.267 87.578 Z" transform="matrix(5.549006, 0, 0, 5.549006, -430.317505, -305.659821)" style="fill: rgb(255, 255, 255);"/>
  <path transform="matrix(5.549006, 0, 0, 5.549006, -430.317505, -305.659821)" style="fill: rgb(255, 255, 255);"/>
  <path d="M 101.244 105.917 L 101.244 97.685 L 103.732 97.685 L 105.225 103.3 L 106.702 97.685 L 109.195 97.685 L 109.195 105.917 L 107.651 105.917 L 107.651 99.437 L 106.017 105.917 L 104.417 105.917 L 102.788 99.437 L 102.788 105.917 Z M 110.467 102.851 Q 110.467 102.065 110.854 101.329 Q 111.242 100.594 111.952 100.206 Q 112.663 99.819 113.538 99.819 Q 114.892 99.819 115.757 100.698 Q 116.621 101.576 116.621 102.918 Q 116.621 104.272 115.748 105.162 Q 114.875 106.052 113.55 106.052 Q 112.73 106.052 111.986 105.681 Q 111.242 105.311 110.854 104.595 Q 110.467 103.879 110.467 102.851 Z M 112.084 102.935 Q 112.084 103.823 112.505 104.294 Q 112.926 104.766 113.544 104.766 Q 114.162 104.766 114.58 104.294 Q 114.998 103.823 114.998 102.924 Q 114.998 102.048 114.58 101.576 Q 114.162 101.105 113.544 101.105 Q 112.926 101.105 112.505 101.576 Q 112.084 102.048 112.084 102.935 Z M 117.79 105.917 L 117.79 97.685 L 119.368 97.685 L 119.368 100.65 Q 120.098 99.819 121.097 99.819 Q 122.187 99.819 122.9 100.608 Q 123.613 101.397 123.613 102.874 Q 123.613 104.401 122.886 105.226 Q 122.159 106.052 121.12 106.052 Q 120.609 106.052 120.112 105.796 Q 119.615 105.541 119.256 105.041 L 119.256 105.917 Z M 119.357 102.806 Q 119.357 103.733 119.649 104.176 Q 120.059 104.805 120.738 104.805 Q 121.26 104.805 121.628 104.359 Q 121.996 103.912 121.996 102.952 Q 121.996 101.93 121.625 101.478 Q 121.255 101.026 120.676 101.026 Q 120.109 101.026 119.733 101.467 Q 119.357 101.908 119.357 102.806 Z M 124.883 99.145 L 124.883 97.685 L 126.461 97.685 L 126.461 99.145 Z M 124.883 105.917 L 124.883 99.954 L 126.461 99.954 L 126.461 105.917 Z M 128.076 105.917 L 128.076 97.685 L 129.654 97.685 L 129.654 105.917 Z M 134.725 104.019 L 136.298 104.283 Q 135.994 105.148 135.34 105.6 Q 134.686 106.052 133.703 106.052 Q 132.148 106.052 131.401 105.035 Q 130.812 104.221 130.812 102.98 Q 130.812 101.498 131.586 100.658 Q 132.361 99.819 133.546 99.819 Q 134.877 99.819 135.646 100.698 Q 136.416 101.576 136.382 103.39 L 132.429 103.39 Q 132.446 104.092 132.811 104.482 Q 133.176 104.873 133.72 104.873 Q 134.091 104.873 134.344 104.67 Q 134.596 104.468 134.725 104.019 Z M 134.815 102.424 Q 134.798 101.739 134.461 101.383 Q 134.125 101.026 133.642 101.026 Q 133.125 101.026 132.788 101.402 Q 132.451 101.779 132.457 102.424 Z" transform="matrix(5.549006, 0, 0, 5.549006, -430.317505, -305.659821)" style="fill: rgb(255, 255, 255);"/>
</svg>